<svg width="1700" height="260" xmlns="http://www.w3.org/2000/svg">
 <defs>
  <style>.cls-1{fill:#fcce44;}.cls-2,.cls-3,.cls-6{fill:none;}.cls-2,.cls-3{stroke:#fff;stroke-width:2px;}.cls-2{stroke-linejoin:round;}.cls-3,.cls-6{stroke-miterlimit:10;}.cls-4{fill:#f5b4c4;}.cls-5{fill:#c64f4b;}.cls-6{stroke:#170c2c;stroke-width:3px;}.cls-7{fill:#170c2c;}.cls-8{fill:#0076aa;}.cls-9{fill:#fff;}.cls-10{fill:#16171e;}</style>
 </defs>
 <title>7</title>
 <g>
  <title>background</title>
  <rect fill="#f8c4b7" id="canvas_background" height="262" width="1702" y="-1" x="-1"/>
 </g>
 <g>
  <title>Layer 1</title>
  <path id="svg_2" d="m1238.920002,824.899998c-0.15,-14.92 -0.92,-30.66 -1.93,-45.44" class="cls-2"/>
  <path id="svg_3" d="m1066.790002,769.609998c24.45,43.31 51,83.34 63.94,79.91c19.24,-5.11 21.09,-77.58 21.09,-77.58s23.07,79.46 50.87,109.93" class="cls-2"/>
  <path id="svg_4" d="m1127.690002,923.789998c5.43,-20.22 8.76,-45.4 17.15,-45.7c6.17,-0.23 27.54,34.52 49.74,73.89" class="cls-3"/>
  <path id="svg_5" d="m1017.060002,777.519998c27.07,47.35 59.5,122 79.58,154.84" class="cls-3"/>
  <circle id="svg_6" r="43.14" cy="911.13" cx="554.97" class="cls-4"/>
  <path id="svg_17" d="m299.710002,491.619998c-127.87,0 -231.53,103.69 -231.53,231.54s103.66,231.53 231.53,231.53s231.54,-103.66 231.54,-231.53s-103.67,-231.54 -231.54,-231.54zm0,346.91a115.37,115.37 0 1 1 115.37,-115.37a115.37,115.37 0 0 1 -115.37,115.37z" class="cls-5"/>
  <path id="svg_20" d="m299.710002,490.309998a23.2,23.2 0 1 1 23.2,-23.2a23.23,23.23 0 0 1 -23.2,23.2z" class="cls-9"/>
  <path id="svg_21" d="m299.710002,445.389998a21.7,21.7 0 1 1 -21.7,21.7a21.72,21.72 0 0 1 21.7,-21.7m0,-3a24.7,24.7 0 1 0 24.7,24.7a24.7,24.7 0 0 0 -24.7,-24.7z" class="cls-7"/>
  <path id="svg_23" d="m402.850002,774.899998c39.82,1 88.84,-1.62 90,0c1.87,2.69 -59.63,38.3 -51.67,49.75c4.75,6.83 40.11,2.3 67.89,-2.46" class="cls-3"/>
  <path id="svg_24" d="m527.250002,680.129998c-24.47,9.84 -72.59,29.54 -112.17,47.86" class="cls-3"/>
  <path id="svg_25" d="m195.010002,516.099998s58.59,-14.73 59.33,-4.71c1,13.18 -128.76,58.13 -128.94,66.78s44.8,4.9 45.66,11c0.6,4.18 -51.74,29 -84.88,44.33" class="cls-3"/>
  <path id="svg_26" d="m203.910002,787.459998c-44.76,-0.5 -106.08,14.72 -108.38,7.15c-3.37,-11.06 25.81,-33.1 20.49,-43.77c-5.14,-10.31 -29.3,-16.08 -47.68,-19" class="cls-3"/>
  <path id="svg_27" d="m169.880002,914.899998c24.25,-21.65 64.73,-60.61 76.75,-89.28" class="cls-3"/>
  <path id="svg_28" d="m350.030002,497.109998c-23.1,17.38 -44.06,37 -43.14,50.67c2,29.93 144.54,29.15 144.54,29.15s-37,12.81 -46,27s102.1,17 102.1,17" class="cls-3"/>
  <path id="svg_30" d="m224.520002,942.689998s91.83,-60.92 229.84,-46.15" class="cls-3"/>
  <line id="svg_40" y2="954.7" x2="1535.49" y1="954.7" class="cls-6"/>
  <g transform="rotate(4.83612060546875 1047.5579833984375,182.56231689453182) " id="svg_44">
   <path stroke="null" id="svg_7" d="m1170.582849,119.881426s23.82,42 12.63,73.25s-58.41,38.2 -58.41,38.2l-71,-82.12l116.78,-29.33z"/>
   <path stroke="null" id="svg_8" d="m908.912849,279.751426a128.72,128.72 0 0 1 254.67,37.88l-254.67,-37.88z" class="cls-5"/>
   <path stroke="null" id="svg_9" d="m1052.672849,194.361426l31.68,-77.48s-18.57,-23.49 -6.24,-38.87s26.52,0.49 26.52,0.49s19.37,-20 45.9,-10.07s27.05,45.92 15.85,65.5c-16.59,28.92 -36.12,37.62 -63.21,17l-15.38,43.48" class="cls-1"/>
   <line stroke="null" id="svg_10" y2="141.411428" x2="1147.962846" y1="125.531428" x1="1149.162846" class="cls-6"/>
   <path stroke="null" id="svg_11" d="m1061.392849,173.041426c31.4,4.31 56.78,-93 56.78,-93c20.25,28.67 54.41,35.53 54.41,35.53s11.79,-46.72 -37.41,-62.75s-73.07,9.22 -73.07,9.22s-55.52,-10.62 -74.52,29.48s12,86.52 12,86.52s36.87,-8.43 61.81,-5z"/>
   <ellipse stroke="null" id="svg_12" transform="rotate(-52.869998931884766 414.80285644531233,517.0014038085938) " ry="3.8" rx="5.79" cy="874.241421" cx="1176.88285" class="cls-7"/>
   <ellipse stroke="null" id="svg_13" transform="rotate(-52.869998931884766 415.16284179687506,500.3414306640625) " ry="3.8" rx="5.79" cy="848.881417" cx="1160.66285" class="cls-7"/>
  </g>
 </g>
</svg>